<svg width="34" height="27" viewBox="0 0 34 27" fill="none" xmlns="http://www.w3.org/2000/svg">
<path d="M0.988 26V0.799998H13.3C16.468 0.799998 18.844 1.4 20.428 2.6C22.036 3.8 22.84 5.384 22.84 7.352C22.84 8.672 22.516 9.824 21.868 10.808C21.22 11.768 20.332 12.512 19.204 13.04C18.076 13.568 16.78 13.832 15.316 13.832L16 12.356C17.584 12.356 18.988 12.62 20.212 13.148C21.436 13.652 22.384 14.408 23.056 15.416C23.752 16.424 24.1 17.66 24.1 19.124C24.1 21.284 23.248 22.976 21.544 24.2C19.84 25.4 17.332 26 14.02 26H0.988ZM6.784 21.608H13.588C15.1 21.608 16.24 21.368 17.008 20.888C17.8 20.384 18.196 19.592 18.196 18.512C18.196 17.456 17.8 16.676 17.008 16.172C16.24 15.644 15.1 15.38 13.588 15.38H6.352V11.132H12.58C13.996 11.132 15.076 10.892 15.82 10.412C16.588 9.908 16.972 9.152 16.972 8.144C16.972 7.16 16.588 6.428 15.82 5.948C15.076 5.444 13.996 5.192 12.58 5.192H6.784V21.608ZM30.384 26.288C29.424 26.288 28.596 25.964 27.9 25.316C27.228 24.644 26.892 23.792 26.892 22.76C26.892 21.728 27.228 20.9 27.9 20.276C28.596 19.628 29.424 19.304 30.384 19.304C31.368 19.304 32.196 19.628 32.868 20.276C33.54 20.9 33.876 21.728 33.876 22.76C33.876 23.792 33.54 24.644 32.868 25.316C32.196 25.964 31.368 26.288 30.384 26.288Z" fill="white"/>
</svg>
